<svg width="334" height="327" viewBox="0 0 334 327" fill="none" xmlns="http://www.w3.org/2000/svg">
<path d="M283.5 64C265.9 23.2 187 -1.5 162.5 1.49995L108 10.5L56.5 32.5L20.5 79L5.00012 139.5C-5.99997 157.5 10 204.405 11.5 205.5C29.4922 218.635 22.5 277.5 128.5 318C208 348.375 257.5 274 280 298.5C330.56 353.554 317.333 311.5 301.5 286.5C321.167 272.167 351.9 244.6 317.5 249C274.5 254.5 298 281 283 274C268.12 267.056 276.366 251.747 279.915 245.157L280 245C280.711 243.679 306 177 306 169C306 160.678 305.5 115 283.5 64Z" stroke="black"/>
</svg>
